<?xml version="1.0" encoding="UTF-8" standalone="no"?>
<!-- Created with Inkscape (http://www.inkscape.org/) -->

<svg
   width="200mm"
   height="200mm"
   viewBox="0 0 200 200"
   version="1.1"
   id="svg1"
   inkscape:version="1.3.2 (091e20ef0f, 2023-11-25)"
   sodipodi:docname="ItemNotFound.svg"
   xmlns:inkscape="http://www.inkscape.org/namespaces/inkscape"
   xmlns:sodipodi="http://sodipodi.sourceforge.net/DTD/sodipodi-0.dtd"
   xmlns="http://www.w3.org/2000/svg"
   xmlns:svg="http://www.w3.org/2000/svg">
  <sodipodi:namedview
     id="namedview1"
     pagecolor="#ffffff"
     bordercolor="#000000"
     borderopacity="0.25"
     inkscape:showpageshadow="2"
     inkscape:pageopacity="0.0"
     inkscape:pagecheckerboard="0"
     inkscape:deskcolor="#d1d1d1"
     inkscape:document-units="mm"
     showgrid="false"
     showguides="true"
     inkscape:zoom="0.77415123"
     inkscape:cx="266.09788"
     inkscape:cy="483.75561"
     inkscape:window-width="1920"
     inkscape:window-height="1024"
     inkscape:window-x="0"
     inkscape:window-y="32"
     inkscape:window-maximized="1"
     inkscape:current-layer="layer1" />
  <defs
     id="defs1">
    <inkscape:perspective
       sodipodi:type="inkscape:persp3d"
       inkscape:vp_x="-168.44358 : 74.866383 : 1"
       inkscape:vp_y="0 : 1000 : 0"
       inkscape:vp_z="124.35748 : 103.86671 : 1"
       inkscape:persp3d-origin="88.883207 : 20.99115 : 1"
       id="perspective1" />
  </defs>
  <g
     inkscape:label="Layer 1"
     inkscape:groupmode="layer"
     id="layer1">
    <g
       id="g24"
       transform="matrix(1.0525537,0,0,1.0525537,-4.2899856,-4.1293206)">
      <path
         id="rect22"
         style="fill:#c5c5c5;fill-opacity:1;stroke:none;stroke-width:0.48626;stroke-linecap:round"
         d="M 34.049834,7.4161079 V 190.34946 h 79.616816 v -84.67392 c 0,-0.19844 0.0345,-0.38724 0.0577,-0.5792 -0.0285,-0.31469 -0.0509,-0.6299 -0.0672,-0.94545 0.0173,-9.343811 5.33507,-17.868432 13.71937,-21.992833 V 38.157321 c 0,-0.82778 0.66671,-1.493244 1.4945,-1.493244 h 13.58555 V 7.4161079 Z"
         sodipodi:nodetypes="cccscccssccc" />
      <path
         d="m 82.759615,54.602225 q -9.608148,0 -18.779562,4.949652 L 60.195025,49.070261 q 4.949652,-2.620404 11.063928,-4.221762 6.259854,-1.601358 13.247598,-1.601358 8.297947,0 13.538755,2.329248 5.386384,2.18367 8.589104,5.677542 3.20271,3.493872 4.36734,7.861212 1.3102,4.221762 1.3102,8.152368 0,4.949652 -1.89251,8.880258 -1.89252,3.785028 -4.6585,7.133322 -2.76598,3.348294 -6.114276,6.405432 -3.348294,3.057138 -6.114276,6.405433 -2.765983,3.202716 -4.658497,7.133324 -1.892514,3.78503 -1.892514,8.5891 0,0.72789 0,1.60136 0,0.87347 0.145578,1.60136 H 75.771871 q -0.582312,-2.91156 -0.582312,-6.11428 0,-4.6585 1.601358,-8.44352 1.746936,-3.785032 4.36734,-6.987748 2.620404,-3.348295 5.531964,-6.114277 2.91156,-2.91156 5.531965,-5.82312 2.620404,-2.91156 4.221762,-6.114276 1.746936,-3.202716 1.746936,-6.987744 0,-6.114276 -3.930606,-9.899304 -3.930607,-3.930606 -11.500663,-3.930606 z m 9.171415,83.998505 q 0,3.93061 -2.620405,6.84217 -2.620404,2.91156 -7.133322,2.91156 -4.512918,0 -7.133322,-2.91156 -2.620404,-2.91156 -2.620404,-6.84217 0,-3.9306 2.620404,-6.84216 2.620404,-2.91156 7.133322,-2.91156 4.512918,0 7.133322,2.91156 2.620405,2.91156 2.620405,6.84216 z"
         id="text22"
         style="font-size:145.578px;font-family:Ubuntu;-inkscape-font-specification:Ubuntu;fill:#ffffff;stroke-width:1.14628;stroke-linecap:round"
         aria-label="?" />
      <path
         id="path24"
         style="fill:#777777;fill-opacity:1;stroke-width:0.501072;stroke-linecap:round"
         d="m 131.9218,41.364351 c -0.78597,0 -1.41897,0.632363 -1.41897,1.418323 v 41.777405 a 23.319729,23.319729 0 0 0 -13.02643,20.881901 23.319729,23.319729 0 0 0 0.0642,0.89786 c -0.022,0.18227 -0.0549,0.36118 -0.0549,0.54959 v 79.01371 c 0,2.51572 2.02536,4.5411 4.54109,4.5411 h 37.53861 c 2.51571,0 4.5411,-2.02538 4.5411,-4.5411 v -79.01371 c 0,-0.18841 -0.0329,-0.36732 -0.0549,-0.54959 a 23.319729,23.319729 0 0 0 0.0642,-0.89786 23.319729,23.319729 0 0 0 -13.02643,-20.918151 V 42.782674 c 0,-0.78596 -0.63302,-1.418323 -1.41898,-1.418323 z" />
    </g>
  </g>
</svg>
