<?xml version="1.0" encoding="UTF-8" standalone="no"?>
<!-- Created with Inkscape (http://www.inkscape.org/) -->

<svg
   width="200mm"
   height="200mm"
   viewBox="0 0 200 200"
   version="1.1"
   id="svg1"
   xml:space="preserve"
   xmlns="http://www.w3.org/2000/svg"
   xmlns:svg="http://www.w3.org/2000/svg"><defs
     id="defs1" /><g
     id="layer1"><g
       id="g6"
       transform="matrix(1.8561398,0,0,1.8561398,-53.562941,-84.056517)"
       style="stroke-width:0.999925;stroke-dasharray:none"><g
         id="g5"
         transform="matrix(0.76226826,0,0,0.76226826,66.898964,52.19836)"
         style="stroke-width:1.31178;stroke-dasharray:none"><g
           style="clip-rule:evenodd;fill-rule:evenodd;stroke-width:9.63184;stroke-dasharray:none;image-rendering:optimizeQuality;shape-rendering:geometricPrecision;text-rendering:geometricPrecision"
           id="g3"
           transform="matrix(0,-0.1361915,0.1361915,0,-44.0924,85.334458)"><path
             fill="#d60000"
             fill-rule="nonzero"
             d="m 163.589,348.019 c 8.264,8.644 16.826,16.799 25.903,24.203 a 7.535,7.535 0 0 1 2.651,8.215 L 154.46,503.4 a 7.511,7.511 0 0 1 -3.798,4.654 7.533,7.533 0 0 1 -10.144,-3.244 C 125.159,475.23 105.57,449.843 82.582,427.837 59.566,405.797 33.114,387.123 4.071,371.009 a 7.5,7.5 0 0 1 -3.737,-4.473 7.528,7.528 0 0 1 4.984,-9.406 l 125.781,-39.059 a 7.55,7.55 0 0 1 7.962,2.359 c 7.932,9.419 15.994,18.666 24.528,27.589 z"
             id="path1-38"
             style="stroke-width:9.63184;stroke-dasharray:none" /><path
             fill="#ff3f2e"
             d="m 184.947,378.227 c -18.884,-15.373 -35.403,-33.684 -51.636,-52.96 L 7.53,364.324 c 59.345,32.896 108.154,76.324 139.683,137.036 z"
             id="path2-7"
             style="stroke-width:9.63184;stroke-dasharray:none" /><path
             fill="#d60000"
             fill-rule="nonzero"
             d="m 375.523,189.699 c -8.063,-9.851 -16.365,-18.976 -24.914,-27.322 -8.571,-8.37 -17.488,-16.074 -26.755,-23.075 a 7.527,7.527 0 0 1 -2.529,-8.608 L 360.261,5.31 a 7.52,7.52 0 0 1 9.392,-4.977 7.503,7.503 0 0 1 4.446,3.691 c 16.119,29.06 34.8,55.525 56.851,78.553 22.01,22.991 47.399,42.58 76.975,57.941 a 7.519,7.519 0 0 1 3.239,10.126 7.497,7.497 0 0 1 -4.622,3.784 l -122.988,37.69 c -3.005,0.924 -6.148,-0.133 -8.031,-2.419 z"
             id="path3-4"
             style="stroke-width:9.63184;stroke-dasharray:none" /><path
             fill="#ff3f2e"
             d="m 381.347,184.934 c -16.361,-20.009 -33.979,-37.299 -52.96,-51.636 L 367.445,7.517 c 32.895,59.345 76.324,108.154 137.036,139.682 z"
             id="path4-2"
             style="stroke-width:9.63184;stroke-dasharray:none" /><path
             fill="#d60000"
             fill-rule="nonzero"
             d="m 134.163,333.379 c 6.261,4.291 7.731,6.157 9.802,11.491 l -36.126,36.127 A 7.53,7.53 0 0 1 97.193,370.35 Z m 31.258,34.297 c 3.67,6.513 13.022,5.865 12.868,8.425 l -37.674,37.674 a 7.53,7.53 0 0 1 -10.646,-10.647 z"
             id="path5-7"
             style="stroke-width:9.63184;stroke-dasharray:none" /><path
             fill="#d60000"
             fill-rule="nonzero"
             d="m 163.182,162.884 c 28.224,-28.224 64.001,-43.579 99.019,-45.583 35.282,-2.019 69.875,9.496 95.402,35.023 25.628,25.629 37.184,60.429 35.149,95.971 -2.017,35.249 -17.427,71.212 -45.744,99.527 -28.224,28.224 -64.001,43.579 -99.019,45.584 -35.284,2.018 -69.873,-9.495 -95.403,-35.025 -25.627,-25.628 -37.183,-60.427 -35.149,-95.968 2.018,-35.249 17.43,-71.214 45.745,-99.529 z"
             id="path6"
             style="stroke-width:9.63184;stroke-dasharray:none" /><ellipse
             fill="#ffda45"
             transform="matrix(1.7818667,-1.7818667,1.6878215,1.6878215,255.09518,255.35223)"
             rx="54.764"
             ry="51.551998"
             id="ellipse6"
             cx="0"
             cy="0"
             style="stroke-width:3.9273;stroke-dasharray:none" /><path
             fill="#d60000"
             fill-rule="nonzero"
             d="m 349.228,142.716 c -7.002,7.002 -8.416,-1.593 -13.212,-7.312 l 37.455,-38.225 a 7.53,7.53 0 0 1 10.647,0 7.53,7.53 0 0 1 0,10.647 z"
             id="path7"
             style="stroke-width:9.63184;stroke-dasharray:none" /><path
             fill="#ff321f"
             d="m 168.083,168.343 a 155.343,155.343 0 0 1 15.394,-13.493 l 172.121,172.121 a 155.575,155.575 0 0 1 -13.492,15.394 155.575,155.575 0 0 1 -15.394,13.492 L 154.591,183.736 a 155.338,155.338 0 0 1 13.492,-15.393 z m 54.866,-35.238 c 16.164,-5.902 32.913,-8.749 49.3,-8.472 l 113.566,113.565 c 0.277,16.387 -2.57,33.136 -8.472,49.301 z m 64.291,244.496 c -16.164,5.904 -32.914,8.748 -49.3,8.473 L 124.374,272.508 c -0.275,-16.386 2.569,-33.136 8.472,-49.3 z"
             id="path8"
             style="stroke-width:9.63184;stroke-dasharray:none" /><path
             fill="#d60000"
             fill-rule="nonzero"
             d="m 378.541,178.956 c -5.719,-4.026 -15.341,-5.953 -8.339,-12.955 l 36.047,-36.046 a 7.53,7.53 0 0 1 10.646,10.647 z"
             id="path9"
             style="stroke-width:9.63184;stroke-dasharray:none" /></g><path
           class="st0"
           d="m 13.61,0 h 13.17 c 1.2,0 2.3,0.49 3.09,1.29 l 0.01,0.01 c 0.79,0.8 1.28,1.89 1.28,3.09 v 5.24 c 0,1.21 -0.49,2.31 -1.29,3.1 -0.05,0.05 -0.1,0.09 -0.15,0.14 -0.65,0.59 -1.47,0.99 -2.37,1.11 0.35,10.13 3.22,14.79 7.3,24.76 11.64,26.18 -1.54,54.13 3.88,69.81 2.63,7.6 4.32,15.3 -8.55,14.23 H 10.16 v 0 c -11.05,0.93 -11.52,-6.22 -8.71,-13.79 5.83,-15.64 -7.7,-43.82 4.04,-70.24 4.1,-10 6.78,-14.66 7.08,-24.85 -0.79,-0.19 -1.5,-0.61 -2.07,-1.17 v 0 C 9.71,11.94 9.21,10.84 9.21,9.63 V 4.39 C 9.21,3.19 9.7,2.09 10.5,1.3 L 10.51,1.29 C 11.32,0.49 12.42,0 13.61,0 Z"
           id="path1"
           style="stroke-width:1.31178;stroke-dasharray:none" /><path
           class="st1"
           d="m 13.61,2 h 13.17 c 1.32,0 2.39,1.08 2.39,2.39 v 5.24 c 0,1.32 -1.08,2.39 -2.39,2.39 H 13.61 c -1.32,0 -2.39,-1.08 -2.39,-2.39 V 4.39 C 11.22,3.08 12.3,2 13.61,2 Z"
           id="path2"
           style="stroke-width:1.31178;stroke-dasharray:none" /><path
           class="st1"
           d="M 3.54,73.8 C 2.84,66.03 2.65,57.7 4.66,49.15 h 31.1 c 2.01,8.55 1.82,16.89 1.12,24.65 z"
           id="path3"
           style="stroke-width:1.31178;stroke-dasharray:none" /><path
           class="st2"
           d="m 20.09,55.13 c 3.5,0 6.33,2.84 6.33,6.34 0,3.5 -2.84,6.34 -6.33,6.34 -3.5,0 -6.34,-2.84 -6.34,-6.34 0,-3.51 2.84,-6.34 6.34,-6.34 z"
           id="path4"
           style="stroke-width:1.31178;stroke-dasharray:none" /><path
           class="st0"
           d="m 20.09,54.01 c 2.06,0 3.92,0.84 5.27,2.19 1.35,1.35 2.18,3.22 2.18,5.27 0,2.06 -0.84,3.92 -2.18,5.27 -1.35,1.35 -3.22,2.19 -5.27,2.19 -2.06,0 -3.92,-0.84 -5.28,-2.19 v 0 c -1.35,-1.35 -2.19,-3.22 -2.19,-5.28 0,-2.06 0.83,-3.93 2.18,-5.28 1.36,-1.34 3.23,-2.17 5.29,-2.17 z m 3.68,3.77 c -0.94,-0.94 -2.24,-1.52 -3.68,-1.52 -1.44,0 -2.74,0.58 -3.69,1.53 -0.94,0.94 -1.52,2.24 -1.52,3.69 0,1.44 0.58,2.74 1.53,3.69 v 0 c 0.94,0.94 2.24,1.52 3.69,1.52 1.44,0 2.74,-0.58 3.68,-1.52 0.94,-0.94 1.52,-2.25 1.52,-3.69 -0.01,-1.45 -0.59,-2.76 -1.53,-3.7 z"
           id="path5"
           style="stroke-width:1.31178;stroke-dasharray:none" /></g><g
         style="clip-rule:evenodd;fill-rule:evenodd;stroke-width:10.0837;stroke-dasharray:none;image-rendering:optimizeQuality;shape-rendering:geometricPrecision;text-rendering:geometricPrecision"
         id="g1"
         transform="matrix(0.09916212,0,0,0.09916212,38.027392,95.07206)"><path
           fill="#773e15"
           d="m 491.85,139.63 c 8.02,0 14.52,6.5 14.52,14.52 0,8.02 -6.5,14.53 -14.52,14.53 -8.02,0 -14.52,-6.51 -14.52,-14.53 0,-8.02 6.5,-14.52 14.52,-14.52 z m -64.11,64.34 c 7.32,10.84 14.97,17.75 22.99,19.92 7.68,2.07 17.17,-0.09 28.77,-7.22 9.41,-5.78 21.73,-2.84 27.51,6.57 1.96,3.18 2.92,6.69 2.96,10.18 0.51,5.6 0.83,11.35 0.96,17.23 0.14,6.35 0.07,12.61 -0.24,18.71 -3.54,70.48 -35.32,132.85 -83.83,176.72 -48.52,43.86 -113.74,69.23 -184.12,65.69 C 172.27,508.23 109.89,476.44 66.02,427.94 22.15,379.42 -3.21,314.21 0.33,243.82 3.87,173.45 36.49,110.91 85.78,66.8 135.26,22.53 201.56,-3.22 272.08,0.32 c 11,0.52 19.51,9.87 18.99,20.87 -0.1,2.16 -0.54,4.21 -1.26,6.12 -4.21,13.71 -4.56,26.18 -1.17,35.89 2.79,7.99 8.49,14.18 17,17.34 9.97,3.71 15.21,14.57 12.07,24.61 l 0.05,0.01 c -6.91,22.15 -7.09,41.49 -2.13,56.87 2.88,8.95 7.55,16.57 13.64,22.59 6.09,6.02 13.73,10.55 22.55,13.3 14.81,4.61 32.96,4.28 53.01,-2.19 8.81,-2.83 18.15,0.79 22.91,8.24 z M 387.78,101.16 c 12.07,0 21.86,9.79 21.86,21.86 0,12.07 -9.79,21.87 -21.86,21.87 -12.08,0 -21.86,-9.8 -21.86,-21.87 0,-12.07 9.78,-21.86 21.86,-21.86 z m 16.9,-90.51 c 12.93,0 23.41,10.49 23.41,23.42 0,12.94 -10.48,23.42 -23.41,23.42 -12.93,0 -23.42,-10.48 -23.42,-23.42 0,-12.93 10.49,-23.42 23.42,-23.42 z"
           id="path1-1"
           style="stroke-width:10.0837;stroke-dasharray:none" /><path
           fill="#cc7a3d"
           d="m 410.93,214.72 c 20.21,30.17 45.81,39.43 79.04,18.99 1.1,11.37 1.38,22.96 0.79,34.71 C 484.22,398.35 373.6,498.38 243.68,491.84 113.75,485.31 13.73,374.68 20.26,244.76 26.79,114.84 141.21,13.72 271.14,20.26 c -11.52,36.03 -1.78,68.05 27.54,78.96 -26.59,85.33 32.74,141.16 112.25,115.5 z"
           id="path2-2"
           style="stroke-width:10.0837;stroke-dasharray:none" /><path
           fill="#965323"
           d="m 137.64,197.91 c 19.46,0 35.24,15.78 35.24,35.24 0,19.47 -15.78,35.25 -35.24,35.25 -19.46,0 -35.24,-15.78 -35.24,-35.25 0,-19.46 15.78,-35.24 35.24,-35.24 z m 313.76,83.48 c 7.48,0 13.54,6.06 13.54,13.53 0,7.47 -6.06,13.54 -13.54,13.54 -7.47,0 -13.53,-6.07 -13.53,-13.54 0,-7.47 6.06,-13.53 13.53,-13.53 z m -60.43,13.77 c 7.48,0 13.53,6.06 13.53,13.53 0,7.47 -6.05,13.53 -13.53,13.53 -7.47,0 -13.53,-6.06 -13.53,-13.53 0,-7.47 6.06,-13.53 13.53,-13.53 z m -60.43,-30.84 c 5.91,0 10.7,4.8 10.7,10.71 0,5.91 -4.79,10.71 -10.7,10.71 -5.92,0 -10.71,-4.8 -10.71,-10.71 0,-5.91 4.79,-10.71 10.71,-10.71 z M 145.86,98.62 c 7.47,0 13.53,6.06 13.53,13.53 0,7.47 -6.06,13.53 -13.53,13.53 -7.48,0 -13.54,-6.06 -13.54,-13.53 0,-7.47 6.06,-13.53 13.54,-13.53 z m 102.71,144.19 c 11.22,0 20.31,9.09 20.31,20.31 0,11.21 -9.09,20.3 -20.31,20.3 -11.21,0 -20.3,-9.09 -20.3,-20.3 0,-11.22 9.09,-20.31 20.3,-20.31 z m -88.06,83.61 c 13.67,0 24.76,11.09 24.76,24.75 0,13.67 -11.09,24.76 -24.76,24.76 -13.67,0 -24.74,-11.09 -24.74,-24.76 0,-13.66 11.07,-24.75 24.74,-24.75 z m 53.37,-189.46 c 10.73,0 19.42,8.7 19.42,19.42 0,10.72 -8.69,19.41 -19.42,19.41 -10.72,0 -19.41,-8.69 -19.41,-19.41 0,-10.72 8.69,-19.42 19.41,-19.42 z M 319.29,335.1 c 17.96,0 32.53,14.56 32.53,32.53 0,17.97 -14.57,32.53 -32.53,32.53 -17.97,0 -32.53,-14.56 -32.53,-32.53 0,-17.97 14.56,-32.53 32.53,-32.53 z"
           id="path3-3"
           style="stroke-width:10.0837;stroke-dasharray:none" /></g><g
         style="clip-rule:evenodd;fill-rule:evenodd;stroke-width:8.29385;stroke-dasharray:none;image-rendering:optimizeQuality;shape-rendering:geometricPrecision;text-rendering:geometricPrecision"
         id="g2"
         transform="matrix(0.12056213,0,0,0.12056213,88.170679,84.326935)"><g
           fill-rule="nonzero"
           id="g4"
           style="stroke-width:8.29385;stroke-dasharray:none"><path
             fill="#3c0a2f"
             d="m 36.56,0 h 291.88 c 4.79,0 8.67,3.88 8.67,8.66 v 238.26 c 0,4.79 -3.88,8.67 -8.67,8.67 H 36.56 c -4.79,0 -8.67,-3.88 -8.67,-8.67 V 8.66 C 27.89,3.88 31.77,0 36.56,0 Z"
             id="path1-3"
             style="stroke-width:8.29385;stroke-dasharray:none" /><path
             fill="#7f3b3c"
             d="m 319.78,17.33 h -55.9 v 67.09 h 55.9 z m -73.23,0 h -55.88 v 67.09 h 55.88 z m -73.21,0 h -55.88 v 67.09 h 55.88 z m -73.21,0 H 45.22 v 67.09 h 54.91 z m -54.91,84.42 v 67.68 c 0.97,-0.37 2.02,-0.58 3.12,-0.58 h 51.79 v -67.1 z m 0,83.85 v 52.66 h 54.91 V 186.18 H 48.34 c -1.1,0 -2.15,-0.21 -3.12,-0.58 z m 72.24,52.66 h 55.88 v -52.08 h -55.88 z m 73.21,0 h 55.88 v -52.08 h -55.88 z m 73.21,0 h 55.9 v -52.08 h -55.9 z m 55.9,-69.41 v -67.1 h -55.9 v 67.1 z m -73.23,0 v -67.1 h -55.88 v 67.1 z m -73.21,0 v -67.1 h -55.88 v 67.1 z"
             id="path2-4"
             style="stroke-width:8.29385;stroke-dasharray:none" /><path
             fill="#3e0f33"
             d="m 338.11,338.47 v 157.8 c 0,4.5 -1.83,8.57 -4.78,11.52 a 16.26,16.26 0 0 1 -11.51,4.78 H 39.13 c -0.43,0 -0.84,-0.03 -1.26,-0.08 -4,-0.3 -7.59,-2.04 -10.25,-4.7 A 16.242,16.242 0 0 1 22.84,496.27 V 338.91 L 15,342.57 C 9.74,345.03 3.48,342.76 1.02,337.5 0.35,336.06 0.03,334.54 0.03,333.05 H 0 v -86.13 c 0,-5.82 4.72,-10.54 10.54,-10.54 h 343.92 c 5.82,0 10.54,4.72 10.54,10.54 v 87.55 c 0,5.83 -4.72,10.55 -10.54,10.55 -1.87,0 -3.62,-0.49 -5.15,-1.34 z"
             id="path3-1"
             style="stroke-width:8.29385;stroke-dasharray:none" /><path
             fill="#e92934"
             d="m 43.93,329.1 v 162.38 h 273.1 V 328.67 l -50.52,-23.5 -78.25,43.96 a 10.49,10.49 0 0 1 -10.16,0.09 L 95.97,304.86 Z"
             id="path4-1"
             style="stroke-width:8.29385;stroke-dasharray:none" /></g></g></g></g><style
     type="text/css"
     id="style1">.st0{fill:#4C182C;} .st1{fill-rule:evenodd;clip-rule:evenodd;fill:#F9414F;} .st2{fill-rule:evenodd;clip-rule:evenodd;fill:#EADC57;}</style></svg>
